<?xml version="1.0" encoding="UTF-8"?>
<svg id="Layer_2" xmlns="http://www.w3.org/2000/svg" version="1.1" viewBox="0 0 612 792">
  <!-- Generator: Adobe Illustrator 30.2.1, SVG Export Plug-In . SVG Version: 2.1.1 Build 1)  -->
  <defs>
    <style>
      .st0 {
        fill: none;
        stroke: #fff;
        stroke-miterlimit: 10;
        stroke-width: 1.23px;
      }

      .st1 {
        fill: #fff;
      }

      .st2 {
        fill: #f15722;
      }
    </style>
  </defs>
  <path class="st0" d="M391.15,157.3c6.35,12.33,9.94,26.33,9.94,41.15,0,49.72-40.31,90.03-90.03,90.03s-90.03-40.31-90.03-90.03,40.31-90.03,90.03-90.03c20.13,0,38.72,6.61,53.72,17.77"/>
  <path class="st1" d="M366.77,147.29c-.07.29-.33.49-.62.49h-13.93c-.64,0-1.12.16-1.28.48l-24.52,77.9c-7.63,24.41-21.94,35.61-42.11,36.63-.54.03-.72-.72-.22-.93,4.93-2.14,10.95-6.81,13.47-15.18l31.09-98.41c.16-.32,0-.48-.8-.48h-13.5c-.45,0-.76-.45-.6-.87h0c.09-.25.33-.42.6-.42h51.79c.42,0,.72.39.62.8h0Z"/>
  <path class="st1" d="M280.72,262.31c0,.29-.23.52-.52.51-12.53-.31-24.9-11.63-24.9-25.97,0-8.72,5.91-15.26,13.46-15.95,7.62-.7,14.49,5.19,14.84,12.84.35,7.76-5.83,14.16-13.51,14.16-5,0-4.68,12.16,10.18,13.9.26.03.46.25.46.5h0Z"/>
  <path class="st2" d="M369.68,163.36c0,.29.23.52.52.51,12.53-.31,24.9-11.63,24.9-25.97,0-8.72-5.91-15.26-13.46-15.95-7.62-.7-14.49,5.19-14.84,12.84-.35,7.76,5.83,14.16,13.51,14.16,5,0,4.68,12.16-10.18,13.9-.26.03-.46.25-.46.5h0Z"/>
</svg>